<svg width="160" height="192" viewBox="0 0 160 192" xmlns="http://www.w3.org/2000/svg">
  <defs>
    <linearGradient id="g" x1="0%" y1="0%" x2="100%" y2="100%">
      <stop offset="0%" stop-color="#f97316"/>
      <stop offset="100%" stop-color="#3b82f6"/>
    </linearGradient>
    <linearGradient id="gbg" x1="0%" y1="0%" x2="100%" y2="100%">
      <stop offset="0%" stop-color="#f97316" stop-opacity="0.1"/>
      <stop offset="100%" stop-color="#3b82f6" stop-opacity="0.1"/>
    </linearGradient>
  </defs>

  <!-- Hexagon -->
  <polygon
    points="80,16 132,46 132,106 80,136 28,106 28,46"
    fill="url(#gbg)"
    stroke="url(#g)"
    stroke-width="2"
  />

  <!-- Location pin — outer shape + inner hole via evenodd -->
  <path
    fill-rule="evenodd"
    fill="url(#g)"
    d="M80,48 A20,20 0 0,1 98,76 L80,118 L62,76 A20,20 0 0,1 80,48 Z
       M80,60 A8,8 0 1,0 80,76 A8,8 0 1,0 80,60 Z"
  />

  <!-- Wordmark -->
  <text
    x="80" y="163"
    text-anchor="middle"
    font-family="-apple-system, BlinkMacSystemFont, 'Segoe UI', sans-serif"
    font-size="20"
    font-weight="800"
    fill="white"
  >ZonePact</text>
</svg>
